<svg width="180" height="180" viewBox="0 0 180 180" fill="none" xmlns="http://www.w3.org/2000/svg">
<g clip-path="url(#clip0)">
<path d="M164.249 178.594H15.7493C11.2493 178.594 7.8743 174.375 8.9993 170.156L22.7805 105.469C23.343 102.094 26.4368 99.8438 29.5305 99.8438H150.468C153.843 99.8438 156.656 102.094 157.218 105.469L170.999 170.156C172.124 174.375 168.749 178.594 164.249 178.594Z" fill="#40C4FF"/>
<path d="M164.249 180H15.7493C13.1112 180 10.6727 178.799 9.06399 176.704C7.52274 174.698 7.00524 172.181 7.64086 169.793L21.4052 105.173C22.0381 101.36 25.5368 98.4375 29.5306 98.4375H150.468C154.591 98.4375 157.938 101.233 158.607 105.238L172.377 169.864C172.999 172.181 172.479 174.701 170.937 176.707C169.326 178.799 166.89 180 164.249 180ZM29.5306 101.25C27.2581 101.25 24.6312 102.915 24.1671 105.699L10.3746 170.449C9.94711 172.052 10.2902 173.68 11.2943 174.988C12.3659 176.386 13.9887 177.188 15.7493 177.188H164.249C166.007 177.188 167.63 176.389 168.701 174.994C169.706 173.683 170.049 172.055 169.638 170.519L155.843 105.764C155.387 103.036 153.23 101.25 150.468 101.25H29.5306Z" fill="#263238"/>
<path d="M10.1243 126.563C10.0343 126.563 9.94149 126.554 9.84586 126.534C9.08367 126.383 8.59149 125.643 8.74336 124.881L9.86836 119.256C10.0202 118.493 10.7515 117.99 11.5221 118.15C12.2843 118.302 12.7765 119.042 12.6246 119.804L11.4996 125.429C11.3702 126.098 10.7824 126.563 10.1243 126.563Z" fill="#263238"/>
<path d="M2.8118 160.313C2.71617 160.313 2.62055 160.304 2.52211 160.282C1.75992 160.121 1.27617 159.376 1.43367 158.617L7.33992 130.492C7.50023 129.729 8.24273 129.232 9.00492 129.403C9.76711 129.563 10.2509 130.309 10.0934 131.068L4.18711 159.193C4.0493 159.854 3.4643 160.313 2.8118 160.313Z" fill="#263238"/>
<path d="M177.184 160.312C176.529 160.312 175.944 159.851 175.809 159.185L174.684 153.56C174.529 152.798 175.024 152.055 175.786 151.903C176.534 151.748 177.288 152.241 177.443 153.006L178.568 158.631C178.722 159.393 178.227 160.135 177.465 160.287C177.37 160.304 177.277 160.312 177.184 160.312Z" fill="#263238"/>
<path d="M174.65 149.063C174 149.063 173.418 148.607 173.277 147.946L167.371 119.821C167.211 119.059 167.697 118.316 168.46 118.156C169.208 117.982 169.961 118.482 170.125 119.244L176.031 147.369C176.191 148.132 175.705 148.874 174.942 149.034C174.847 149.054 174.746 149.063 174.65 149.063Z" fill="#263238"/>
<path d="M41.9055 174.375C41.8071 174.375 41.7059 174.364 41.6074 174.341C40.848 174.178 40.3671 173.43 40.5302 172.671L55.1552 105.171C55.3212 104.411 56.0777 103.928 56.8287 104.093C57.588 104.257 58.069 105.005 57.9059 105.764L43.2809 173.264C43.1374 173.922 42.5552 174.375 41.9055 174.375Z" fill="#263238"/>
<path d="M138.087 174.375C137.443 174.375 136.858 173.925 136.718 173.264L122.096 105.764C121.93 105.005 122.411 104.257 123.173 104.093C123.921 103.925 124.677 104.408 124.843 105.171L139.466 172.671C139.631 173.43 139.151 174.178 138.388 174.341C138.29 174.364 138.186 174.375 138.087 174.375Z" fill="#263238"/>
<path d="M89.9993 174.375C89.223 174.375 88.5931 173.745 88.5931 172.969V105.469C88.5931 104.693 89.223 104.063 89.9993 104.063C90.7755 104.063 91.4055 104.693 91.4055 105.469V172.969C91.4055 173.745 90.7755 174.375 89.9993 174.375Z" fill="#263238"/>
<path d="M158.906 140.625H21.093C20.314 140.625 19.6868 139.995 19.6868 139.219C19.6868 138.443 20.314 137.813 21.093 137.813H158.906C159.682 137.813 160.312 138.443 160.312 139.219C160.312 139.995 159.682 140.625 158.906 140.625Z" fill="#263238"/>
<path d="M137.812 39.375C137.556 39.375 137.297 39.3047 137.069 39.1641C136.515 38.8181 136.271 38.1375 136.479 37.5188L142.039 21.0938H134.718C134.15 21.0938 133.635 20.7506 133.419 20.2247C133.202 19.6988 133.323 19.0941 133.722 18.6919L152.004 0.410628C152.468 -0.050622 153.191 -0.132184 153.739 0.210941C154.293 0.556878 154.538 1.2375 154.33 1.85625L148.772 18.2813H156.093C156.661 18.2813 157.176 18.6244 157.392 19.1503C157.609 19.6763 157.488 20.2809 157.089 20.6831L138.807 38.9644C138.535 39.2344 138.175 39.375 137.812 39.375ZM145.406 19.6931C145.406 19.8422 145.38 19.9941 145.332 20.1375L141.074 32.7178L152.698 21.0938H146.812C146.359 21.0938 145.931 20.8744 145.67 20.5088C145.496 20.2669 145.406 19.98 145.406 19.6931ZM138.113 18.2813H143.999C144.452 18.2813 144.88 18.5006 145.141 18.8663C145.316 19.1053 145.406 19.3922 145.406 19.6819C145.406 19.5328 145.431 19.3809 145.479 19.2375L149.737 6.65719L138.113 18.2813Z" fill="#263238"/>
<path d="M23.9055 56.25C23.1265 56.25 22.4993 55.62 22.4993 54.8438V43.5938C22.4993 42.8147 23.1265 42.1875 23.9055 42.1875C24.6846 42.1875 25.3118 42.8147 25.3118 43.5938V54.8438C25.3118 55.62 24.6818 56.25 23.9055 56.25Z" fill="#263238"/>
<path d="M29.5305 50.625H18.2805C17.5015 50.625 16.8743 49.995 16.8743 49.2188C16.8743 48.4425 17.5015 47.8125 18.2805 47.8125H29.5305C30.3068 47.8125 30.9368 48.4425 30.9368 49.2188C30.9368 49.995 30.3068 50.625 29.5305 50.625Z" fill="#263238"/>
<path d="M156.093 78.75C155.317 78.75 154.687 78.12 154.687 77.3438V66.0938C154.687 65.3175 155.317 64.6875 156.093 64.6875C156.869 64.6875 157.499 65.3175 157.499 66.0938V77.3438C157.499 78.12 156.869 78.75 156.093 78.75Z" fill="#263238"/>
<path d="M161.718 73.125H150.468C149.692 73.125 149.062 72.495 149.062 71.7188C149.062 70.9425 149.692 70.3125 150.468 70.3125H161.718C162.494 70.3125 163.124 70.9425 163.124 71.7188C163.124 72.495 162.494 73.125 161.718 73.125Z" fill="#263238"/>
<path d="M67.218 94.2188C65.5305 90.8438 64.6868 86.9062 64.6868 82.9688C64.6868 68.9062 75.9368 57.6562 89.9993 57.6562C104.062 57.6562 115.312 68.9062 115.312 82.9688C115.312 86.9062 114.468 90.8438 112.781 94.2188" fill="#FFD740"/>
<path d="M112.778 95.625C112.567 95.625 112.35 95.5772 112.148 95.4759C111.453 95.1272 111.172 94.2834 111.518 93.5888C113.079 90.4725 113.903 86.7994 113.903 82.9688C113.903 69.7866 103.179 59.0625 89.9965 59.0625C76.8143 59.0625 66.0902 69.7866 66.0902 82.9688C66.0902 86.7994 66.9143 90.4725 68.4724 93.5888C68.8212 94.2834 68.5371 95.1272 67.8424 95.4759C67.1449 95.8275 66.304 95.5406 65.9552 94.8459C64.2059 91.3416 63.2805 87.2325 63.2805 82.9688C63.2805 68.2369 75.2674 56.25 89.9993 56.25C104.731 56.25 116.718 68.2369 116.718 82.9688C116.718 87.2353 115.79 91.3444 114.038 94.8487C113.79 95.3381 113.292 95.625 112.778 95.625Z" fill="#263238"/>
<path d="M89.9993 50.625C88.3118 50.625 87.1868 49.5 87.1868 47.8125V33.75C87.1868 32.0625 88.3118 30.9375 89.9993 30.9375C91.6868 30.9375 92.8118 32.0625 92.8118 33.75V47.8125C92.8118 49.5 91.6868 50.625 89.9993 50.625Z" fill="#FFD740"/>
<path d="M89.9993 52.0312C87.5159 52.0312 85.7805 50.2959 85.7805 47.8125V33.75C85.7805 31.2666 87.5159 29.5312 89.9993 29.5312C92.4434 29.5312 94.218 31.3059 94.218 33.75V47.8125C94.218 50.2566 92.4434 52.0312 89.9993 52.0312ZM89.9993 32.3438C89.0937 32.3438 88.593 32.8444 88.593 33.75V47.8125C88.593 48.7181 89.0937 49.2188 89.9993 49.2188C90.9049 49.2188 91.4055 48.7181 91.4055 47.8125V33.75C91.4055 32.8416 90.9049 32.3438 89.9993 32.3438Z" fill="#263238"/>
<path d="M114.749 61.0313C113.906 61.0313 113.343 60.75 112.781 60.1875C111.656 59.0625 111.656 57.375 112.781 56.25L122.624 46.4063C123.749 45.2812 125.437 45.2812 126.562 46.4063C127.687 47.5313 127.687 49.2187 126.562 50.3437L116.718 60.1875C116.437 60.75 115.593 61.0313 114.749 61.0313Z" fill="#FFD740"/>
<path d="M114.746 62.4375C113.582 62.4375 112.64 62.0381 111.782 61.1803C110.123 59.5181 110.123 56.9166 111.782 55.2544L121.626 45.4106C123.291 43.7484 125.89 43.7513 127.552 45.4106C128.362 46.2206 128.806 47.2725 128.806 48.375C128.806 49.4775 128.362 50.5294 127.552 51.3394L117.835 61.0566C117.269 61.9256 116.141 62.4375 114.746 62.4375ZM124.59 46.9688C124.247 46.9688 123.901 47.1122 123.614 47.3991L113.771 57.2428C113.2 57.8166 113.2 58.6181 113.771 59.1919C114.105 59.5266 114.325 59.625 114.746 59.625C115.177 59.625 115.466 59.5097 115.528 59.4591C115.596 59.3241 115.613 59.2987 115.72 59.1919L125.563 49.3481C125.847 49.0641 125.994 48.7294 125.994 48.3722C125.994 48.0178 125.845 47.6803 125.563 47.3991C125.282 47.115 124.936 46.9688 124.59 46.9688Z" fill="#263238"/>
<path d="M65.2493 61.0313C64.4056 61.0313 63.843 60.75 63.2805 60.1875L53.4368 50.3437C52.3118 49.2187 52.3118 47.5313 53.4368 46.4063C54.5618 45.2812 56.2493 45.2812 57.3743 46.4063L67.218 56.25C68.343 57.375 68.343 59.0625 67.218 60.1875C66.6555 60.75 65.8118 61.0313 65.2493 61.0313Z" fill="#FFD740"/>
<path d="M65.2493 62.4375C64.0849 62.4375 63.1427 62.0381 62.2849 61.1803L52.4412 51.3366C50.779 49.6744 50.779 47.0728 52.4412 45.4106C54.1062 43.7484 56.7077 43.7513 58.3671 45.4106L68.2109 55.2544C69.0209 56.0644 69.4652 57.1162 69.4652 58.2159C69.4652 59.3184 69.0209 60.3703 68.2109 61.1803C67.2856 62.1084 66.0368 62.4375 65.2493 62.4375ZM55.4027 46.9688C55.0596 46.9688 54.7165 47.1122 54.4296 47.3991C54.1455 47.6831 53.9993 48.0178 53.9993 48.3722C53.9993 48.7266 54.1484 49.0641 54.4296 49.3481L64.2734 59.1919C64.6081 59.5266 64.8274 59.625 65.2493 59.625C65.4715 59.625 65.944 59.4703 66.2224 59.1947C66.5065 58.9106 66.6556 58.5731 66.6556 58.2188C66.6556 57.8644 66.5065 57.5269 66.2252 57.2456L56.3815 47.4019C56.0918 47.1122 55.7487 46.9688 55.4027 46.9688Z" fill="#263238"/>
<path d="M54.843 85.7812H40.7805C39.093 85.7812 37.968 84.6562 37.968 82.9688C37.968 81.2812 39.093 80.1562 40.7805 80.1562H54.843C56.5305 80.1562 57.6555 81.2812 57.6555 82.9688C57.6555 84.6562 56.5305 85.7812 54.843 85.7812Z" fill="#FFD740"/>
<path d="M54.843 87.1875H40.7805C38.2971 87.1875 36.5618 85.4522 36.5618 82.9688C36.5618 80.4853 38.2971 78.75 40.7805 78.75H54.843C57.3265 78.75 59.0618 80.4853 59.0618 82.9688C59.0618 85.4522 57.3265 87.1875 54.843 87.1875ZM40.7805 81.5625C39.8749 81.5625 39.3743 82.0631 39.3743 82.9688C39.3743 83.8744 39.8749 84.375 40.7805 84.375H54.843C55.7487 84.375 56.2493 83.8744 56.2493 82.9688C56.2493 82.0631 55.7487 81.5625 54.843 81.5625H40.7805Z" fill="#263238"/>
<path d="M139.218 85.7812H125.156C123.468 85.7812 122.343 84.6562 122.343 82.9688C122.343 81.2812 123.468 80.1562 125.156 80.1562H139.218C140.906 80.1562 142.031 81.2812 142.031 82.9688C142.031 84.6562 140.906 85.7812 139.218 85.7812Z" fill="#FFD740"/>
<path d="M139.218 87.1875H125.156C122.711 87.1875 120.937 85.4128 120.937 82.9688C120.937 80.5247 122.711 78.75 125.156 78.75H139.218C141.662 78.75 143.437 80.5247 143.437 82.9688C143.437 85.4128 141.662 87.1875 139.218 87.1875ZM125.156 81.5625C124.25 81.5625 123.749 82.0631 123.749 82.9688C123.749 83.8744 124.25 84.375 125.156 84.375H139.218C140.124 84.375 140.624 83.8744 140.624 82.9688C140.624 82.0631 140.124 81.5625 139.218 81.5625H125.156Z" fill="#263238"/>
<path d="M89.9993 66.0938C99.2805 66.0938 106.874 73.6875 106.874 82.9688L89.9993 66.0938Z" fill="#FFD740"/>
<path d="M106.874 84.375C106.098 84.375 105.468 83.745 105.468 82.9688C105.468 74.4384 98.5268 67.5 89.9993 67.5C89.223 67.5 88.593 66.87 88.593 66.0938C88.593 65.3175 89.2202 64.6875 89.9993 64.6875C100.079 64.6875 108.281 72.8888 108.281 82.9688C108.281 83.745 107.651 84.375 106.874 84.375Z" fill="#263238"/>
</g>
<defs>
<clipPath id="clip0">
<rect width="180" height="180" fill="white"/>
</clipPath>
</defs>
</svg>
